<svg width="19" height="20" viewBox="0 0 19 20" fill="none" xmlns="http://www.w3.org/2000/svg">
<path d="M8.87366 14.2695V14.6881C8.87366 14.9601 9.02166 15.2201 9.27232 15.3215C9.75499 15.5188 10.2217 15.1641 10.2217 14.7041V14.2548C10.2217 13.7948 9.75499 13.4388 9.27232 13.6361C9.02166 13.7401 8.87366 14.0001 8.87366 14.2695Z" fill="#A7CA1A"/>
<path d="M9.64583 1.68493C14.0565 1.68493 17.6405 5.26893 17.6405 9.67826C17.6405 14.0889 14.0565 17.6716 9.64583 17.6716C5.2365 17.6716 1.6525 14.0889 1.6525 9.67826C1.6525 5.26893 5.2365 1.68493 9.64583 1.68493ZM9.64583 19.0116C14.7925 19.0116 18.9792 14.8249 18.9792 9.67826C18.9792 4.53293 14.7925 0.344931 9.64583 0.344931C4.49917 0.344931 0.3125 4.53293 0.3125 9.67826C0.3125 14.8249 4.49917 19.0116 9.64583 19.0116Z" fill="#A7CA1A"/>
<path d="M6.74344 8.02347C6.75411 8.02347 6.75411 8.02347 6.74344 8.02347C7.11144 8.02347 7.41278 7.7448 7.41278 7.3768C7.41278 7.3768 7.42478 6.8408 7.69144 6.3168C8.02744 5.64613 8.61944 5.31147 9.49011 5.31147C10.3048 5.31147 10.9074 5.53413 11.2434 5.97013C11.5208 6.32747 11.5994 6.81813 11.4661 7.35413C11.2981 8.0128 10.7288 8.58213 10.1821 9.1408C9.52611 9.81813 8.83811 10.5061 8.81011 11.4261C8.80078 11.7181 8.95544 12.0088 9.23144 12.1088C9.70211 12.2821 10.1488 11.9341 10.1488 11.4848C10.1488 11.0835 10.6288 10.5915 11.1421 10.0781C11.7781 9.43146 12.5034 8.69413 12.7608 7.6888C13.0061 6.76213 12.8394 5.83547 12.3034 5.15547C11.8901 4.61813 11.0634 3.97147 9.50078 3.97147C7.74744 3.97147 6.91011 4.9088 6.50878 5.71413C6.10611 6.5168 6.08478 7.28613 6.08478 7.3768C6.08478 7.7328 6.37544 8.02347 6.74344 8.02347Z" fill="#A7CA1A"/>
</svg>
